# This file uses centimeters as units for non-parametric coordinates.

g default
v -0.720428 1.002008 -0.523422
v -0.275179 1.002008 -0.846915
v 0.275179 1.002008 -0.846914
v 0.720428 1.002008 -0.523422
v 0.890499 1.002008 0.000000
v 0.720428 1.002008 0.523422
v 0.275179 1.002008 0.846914
v -0.275179 1.002008 0.846914
v -0.720428 1.002008 0.523422
v -0.782508 1.002008 -0.000000
v 0.465164 -2.658295 0.000000
v 0.085035 1.099960 0.261711
v -0.085035 1.099960 -0.261711
v 0.652142 -0.909997 0.103916
v 0.547624 -0.899410 -0.298458
v 0.153918 -0.924656 -0.469710
v -0.105914 -0.951584 -0.388694
v -0.227999 -0.972274 -0.277044
v -0.267995 -0.959986 -0.001943
v -0.326096 -0.964410 0.257220
v -0.035245 -0.984538 0.348380
v 0.144019 -0.988728 0.435357
v 0.474126 -0.957832 0.427912
v -0.737261 -0.047731 -0.344433
v -0.918224 -0.043830 -0.001270
v -0.797461 -0.045234 0.368240
v -0.512874 -0.051624 0.709667
v -0.095803 -0.052954 0.592940
v 0.220558 -0.043146 0.368854
v 0.462771 -0.027961 -0.001270
v 0.228060 -0.024601 -0.376844
v -0.092661 -0.032615 -0.605151
v -0.483766 -0.041163 -0.601086
vt 0.702254 0.103054
vt 0.577254 0.012236
vt 0.422746 0.012236
vt 0.297746 0.103054
vt 0.250000 0.250000
vt 0.297746 0.396946
vt 0.422746 0.487764
vt 0.577254 0.487764
vt 0.702254 0.396946
vt 0.750000 0.250000
vt 0.250000 0.500000
vt 0.300000 0.500000
vt 0.350000 0.500000
vt 0.400000 0.500000
vt 0.450000 0.500000
vt 0.500000 0.500000
vt 0.550000 0.500000
vt 0.600000 0.500000
vt 0.650000 0.500000
vt 0.700000 0.500000
vt 0.750000 0.500000
vt 0.500000 1.000000
vt 0.476127 0.323473
vt 0.523873 0.176527
vt 0.467093 0.670925
vt 0.433487 0.667436
vt 0.402727 0.675758
vt 0.373853 0.684633
vt 0.654273 0.691453
vt 0.345727 0.691453
vt 0.625039 0.687403
vt 0.593342 0.688861
vt 0.560901 0.695496
vt 0.530312 0.696877
vt 0.500000 0.686693
vt 0.711837 0.576326
vt 0.288163 0.576326
vt 0.670116 0.574711
vt 0.627412 0.575292
vt 0.584413 0.577937
vt 0.542151 0.578488
vt 0.500000 0.574428
vt 0.456814 0.568142
vt 0.413350 0.566751
vt 0.371021 0.570068
vt 0.329443 0.573607
vn -0.122386 0.989771 -0.073313
vn -0.120964 0.992640 -0.005869
vn -0.015954 0.998599 -0.050463
vn -0.037182 0.993589 -0.106763
vn -0.635875 -0.087168 -0.766853
vn -0.635875 -0.087168 -0.766853
vn -0.640259 -0.194580 -0.743106
vn -0.640267 -0.196510 -0.742592
vn -0.002134 -0.227900 -0.973682
vn -0.002134 -0.227900 -0.973682
vn -0.043321 -0.227613 -0.972788
vn -0.041968 -0.227629 -0.972843
vn 0.545704 -0.369443 -0.752143
vn 0.545704 -0.369443 -0.752143
vn 0.533559 -0.200316 -0.821698
vn 0.534764 -0.210397 -0.818389
vn 0.835043 -0.400263 -0.377483
vn 0.835043 -0.400263 -0.377483
vn 0.903340 -0.153577 -0.400489
vn 0.900376 -0.171922 -0.399706
vn 0.834255 -0.401314 0.378107
vn 0.834255 -0.401314 0.378107
vn 0.876160 -0.135680 0.462530
vn 0.874647 -0.171048 0.453580
vn 0.544981 -0.372146 0.751334
vn 0.544981 -0.372146 0.751334
vn 0.483464 -0.230975 0.844342
vn 0.483274 -0.230579 0.844559
vn 0.116733 -0.213651 0.969911
vn 0.116733 -0.213651 0.969911
vn 0.096318 -0.224558 0.969689
vn 0.091492 -0.227114 0.969561
vn -0.673475 -0.002001 0.739207
vn -0.673475 -0.002001 0.739207
vn -0.640226 -0.191708 0.743881
vn -0.641694 -0.185599 0.744165
vn -0.976161 0.084270 0.200019
vn -0.976161 0.084270 0.200019
vn -0.973700 -0.161427 0.160781
vn -0.973053 -0.166119 0.159917
vn -0.961724 0.047117 -0.269939
vn -0.961724 0.047117 -0.269939
vn -0.936179 -0.206307 -0.284616
vn -0.941871 -0.179628 -0.283926
vn 0.016010 0.998816 0.045931
vn -0.092970 0.993399 0.067193
vn 0.036410 0.993034 0.112059
vn -0.044841 0.989416 0.138007
vn 0.111983 0.993708 0.002224
vn 0.117396 0.989416 0.085293
vn 0.089289 0.993708 -0.067621
vn 0.044841 0.989416 -0.138007
vn 0.938614 0.087761 -0.333619
vn 0.944433 0.062558 -0.322696
vn 0.963557 -0.088037 -0.252603
vn 0.452121 -0.047835 -0.890673
vn 0.442249 -0.074017 -0.893833
vn 0.402192 -0.171464 -0.899356
vn -0.170652 -0.254264 -0.951960
vn -0.180723 -0.259185 -0.948769
vn -0.256351 -0.295381 -0.920345
vn -0.615648 -0.390644 -0.684379
vn -0.614587 -0.389184 -0.686162
vn -0.594787 -0.362437 -0.717543
vn -0.854181 -0.473663 -0.214518
vn -0.857591 -0.469750 -0.209459
vn -0.911964 -0.393826 -0.114995
vn -0.876596 -0.480659 -0.023380
vn -0.881961 -0.468685 -0.049787
vn -0.897949 -0.387882 -0.207930
vn -0.428075 -0.372235 0.823524
vn -0.485609 -0.414347 0.769740
vn -0.304693 -0.280545 0.910196
vn -0.153393 -0.281070 0.947349
vn -0.103403 -0.274497 0.956012
vn -0.421620 -0.303877 0.854339
vn 0.197437 -0.101021 0.975097
vn 0.213604 -0.085129 0.973204
vn 0.044685 -0.244014 0.968742
vn 0.858485 0.094011 0.504149
vn 0.860793 0.081202 0.502435
vn 0.877397 -0.121424 0.464146
g pCone1
f 1/1/1 10/10/2 13/24/3 2/2/4
f 1/11/5 2/12/6 33/46/7 24/37/8
f 2/12/9 3/13/10 32/45/11 33/46/12
f 3/13/13 4/14/14 31/44/15 32/45/16
f 4/14/17 5/15/18 30/43/19 31/44/20
f 5/15/21 6/16/22 29/42/23 30/43/24
f 6/16/25 7/17/26 28/41/27 29/42/28
f 7/17/29 8/18/30 27/40/31 28/41/32
f 8/18/33 9/19/34 26/39/35 27/40/36
f 9/19/37 10/20/38 25/38/39 26/39/40
f 10/20/41 1/21/42 24/36/43 25/38/44
f 12/23/45 13/24/3 10/10/2 9/9/46
f 7/7/47 12/23/45 9/9/46 8/8/48
f 5/5/49 12/23/45 7/7/47 6/6/50
f 4/4/51 13/24/3 12/23/45 5/5/49
f 2/2/4 13/24/3 4/4/51 3/3/52
f 15/26/53 14/25/54 11/22/55
f 16/27/56 15/26/57 11/22/58
f 17/28/59 16/27/60 11/22/61
f 18/30/62 17/28/63 11/22/64
f 19/31/65 18/29/66 11/22/67
f 20/32/68 19/31/69 11/22/70
f 21/33/71 20/32/72 11/22/73
f 22/34/74 21/33/75 11/22/76
f 23/35/77 22/34/78 11/22/79
f 14/25/80 23/35/81 11/22/82
f 25/38/44 24/36/43 18/29/66 19/31/65
f 26/39/40 25/38/39 19/31/69 20/32/68
f 27/40/36 26/39/35 20/32/72 21/33/71
f 28/41/32 27/40/31 21/33/75 22/34/74
f 29/42/28 28/41/27 22/34/78 23/35/77
f 30/43/24 29/42/23 23/35/81 14/25/80
f 31/44/20 30/43/19 14/25/54 15/26/53
f 32/45/16 31/44/15 15/26/57 16/27/56
f 33/46/12 32/45/11 16/27/60 17/28/59
f 24/37/8 33/46/7 17/28/63 18/30/62
