# This file uses centimeters as units for non-parametric coordinates.

g default
v 0.809017 4.973280 -0.092151
v 0.309017 5.336552 -0.092151
v -0.309017 5.336551 -0.092151
v -0.809017 4.973280 -0.092151
v -1.000000 4.385495 -0.092151
v -0.809017 3.797709 -0.092151
v -0.309017 3.434438 -0.092151
v 0.309017 3.434438 -0.092151
v 0.809017 3.797709 -0.092151
v 1.000000 4.385495 -0.092151
v 0.809017 4.973280 0.092151
v 0.309017 5.336552 0.092151
v -0.309017 5.336551 0.092151
v -0.809017 4.973280 0.092151
v -1.000000 4.385495 0.092151
v -0.809017 3.797709 0.092151
v -0.309017 3.434438 0.092151
v 0.309017 3.434438 0.092151
v 0.809017 3.797709 0.092151
v 1.000000 4.385495 0.092151
v 1.319747 5.344347 -0.092151
v 0.504098 5.936951 -0.092151
v 0.504098 5.936951 0.092151
v 1.319747 5.344347 0.092151
v -0.504099 5.936950 -0.092151
v -0.504099 5.936950 0.092151
v -1.319747 5.344347 -0.092151
v -1.319747 5.344347 0.092151
v -1.631297 4.385495 -0.092151
v -1.631297 4.385495 0.092151
v -1.319747 3.426642 -0.092151
v -1.319747 3.426642 0.092151
v -0.504098 2.834039 -0.092151
v -0.504098 2.834039 0.092151
v 0.504099 2.834039 -0.092151
v 0.504099 2.834039 0.092151
v 1.319747 3.426642 -0.092151
v 1.319747 3.426642 0.092151
v 1.631297 4.385495 -0.092151
v 1.631297 4.385495 0.092151
v -0.158357 1.286080 -0.092151
v 0.158357 1.286080 -0.092151
v 0.158357 1.286080 0.092151
v -0.158357 1.286080 0.092151
v 1.526837 6.246921 -0.092151
v 1.298504 6.412816 -0.092151
v 1.298504 6.412816 0.092151
v 1.526837 6.246921 0.092151
v -1.298504 6.412816 -0.092151
v -1.526837 6.246921 -0.092151
v -1.526837 6.246921 0.092151
v -1.298504 6.412816 0.092151
vt 0.200249 0.100792
vt 0.166576 0.076336
vt 0.179692 0.035903
vt 0.234637 0.075802
vt 0.371338 0.274661
vt 0.404863 0.250475
vt 0.438824 0.275513
vt 0.384272 0.315005
vt 0.124962 0.076343
vt 0.111816 0.035919
vt 0.329560 0.274156
vt 0.315925 0.314812
vt 0.091306 0.100821
vt 0.056922 0.075847
vt 0.295806 0.248937
vt 0.260621 0.273718
vt 0.078444 0.140390
vt 0.035936 0.140386
vt 0.283412 0.208737
vt 0.240515 0.207908
vt 0.091317 0.179971
vt 0.056937 0.204943
vt 0.019446 0.419425
vt 0.031887 0.003298
vt 0.297136 0.169212
vt 0.263218 0.143327
vt 0.124972 0.204418
vt 0.111836 0.244836
vt 0.331359 0.145567
vt 0.319280 0.104904
vt 0.166596 0.204416
vt 0.179729 0.244840
vt 0.372804 0.146585
vt 0.386769 0.106664
vt 0.200255 0.179952
vt 0.234649 0.204934
vt 0.405846 0.171645
vt 0.440483 0.147445
vt 0.213111 0.140371
vt 0.255629 0.140372
vt 0.418024 0.211232
vt 0.460219 0.211773
vt 0.156448 0.349069
vt 0.135115 0.349062
vt 0.345175 0.001992
vt 0.366333 0.002542
vt 0.233195 0.003856
vt 0.248573 0.015033
vt 0.452501 0.335742
vt 0.437246 0.346792
vt 0.042943 0.015062
vt 0.058315 0.003881
vt 0.261231 0.346785
vt 0.245742 0.335271
vt 0.031785 0.086681
vt 0.019370 0.086674
vt 0.019401 0.045008
vt 0.031833 0.045021
vt 0.019442 0.003282
vt 0.031896 0.419460
vt 0.019596 0.377676
vt 0.032037 0.377685
vt 0.019509 0.335983
vt 0.031933 0.335962
vt 0.019475 0.294357
vt 0.031870 0.294339
vt 0.019407 0.252853
vt 0.031793 0.252834
vt 0.019352 0.211293
vt 0.031732 0.211283
vt 0.019349 0.169807
vt 0.031727 0.169810
vt 0.019366 0.128275
vt 0.031762 0.128282
vt 0.001165 0.310441
vt 0.001247 0.238064
vt 0.014460 0.238064
vt 0.014542 0.310441
vt 0.002489 0.165687
vt 0.013218 0.165687
vt 0.013984 0.378570
vt 0.001723 0.378570
vt 0.002113 0.120956
vt 0.013594 0.120956
vt 0.002283 0.391092
vt 0.013424 0.391092
vt 0.001072 0.004112
vt 0.014635 0.004112
vt 0.002489 0.812526
vt 0.001247 0.740149
vt 0.014460 0.740149
vt 0.013219 0.812526
vt 0.001165 0.667772
vt 0.014543 0.667772
vt 0.002112 0.857257
vt 0.013596 0.857257
vt 0.001723 0.599643
vt 0.013985 0.599643
vt 0.014669 0.974102
vt 0.001039 0.974101
vt 0.002283 0.587121
vt 0.013425 0.587121
vt 0.001382 0.527158
vt 0.001381 0.451056
vt 0.014326 0.451056
vt 0.014326 0.527157
vt 0.000919 0.998008
vt 0.014789 0.998008
vn 0.587788 0.809015 0.000000
vn 0.587788 0.809015 0.000000
vn 0.587788 0.809015 0.000000
vn 0.587788 0.809015 0.000000
vn -0.000000 1.000000 0.000000
vn -0.000000 1.000000 0.000000
vn -0.000000 1.000000 0.000000
vn -0.000000 1.000000 0.000000
vn -0.587788 0.809015 0.000000
vn -0.587788 0.809015 0.000000
vn -0.587788 0.809015 0.000000
vn -0.587788 0.809015 0.000000
vn -0.951057 0.309017 0.000000
vn -0.951057 0.309017 0.000000
vn -0.951057 0.309017 0.000000
vn -0.951057 0.309017 0.000000
vn -0.951057 -0.309017 -0.000000
vn -0.951057 -0.309017 -0.000000
vn -0.951057 -0.309017 -0.000000
vn -0.951057 -0.309017 -0.000000
vn -0.587785 -0.809017 -0.000000
vn -0.587785 -0.809017 -0.000000
vn -0.587785 -0.809017 -0.000000
vn -0.587785 -0.809017 -0.000000
vn 0.000000 -1.000000 -0.000000
vn 0.000000 -1.000000 -0.000000
vn 0.000000 -1.000000 -0.000000
vn 0.000000 -1.000000 -0.000000
vn 0.587785 -0.809017 -0.000000
vn 0.587785 -0.809017 -0.000000
vn 0.587785 -0.809017 -0.000000
vn 0.587785 -0.809017 -0.000000
vn 0.951057 -0.309017 -0.000000
vn 0.951057 -0.309017 -0.000000
vn 0.951057 -0.309017 -0.000000
vn 0.951057 -0.309017 -0.000000
vn 0.951057 0.309017 0.000000
vn 0.951057 0.309017 0.000000
vn 0.951057 0.309017 0.000000
vn 0.951057 0.309017 0.000000
vn -0.587786 -0.809017 -0.000000
vn -0.587786 -0.809017 -0.000000
vn -0.587786 -0.809017 -0.000000
vn -0.587786 -0.809017 -0.000000
vn 0.000001 -1.000000 -0.000000
vn 0.000001 -1.000000 -0.000000
vn 0.000001 -1.000000 -0.000000
vn 0.000001 -1.000000 -0.000000
vn 0.587785 -0.809017 -0.000000
vn 0.587785 -0.809017 -0.000000
vn 0.587785 -0.809017 -0.000000
vn 0.587785 -0.809017 -0.000000
vn 0.951057 -0.309017 -0.000000
vn 0.951057 -0.309017 -0.000000
vn 0.951057 -0.309017 -0.000000
vn 0.951057 -0.309017 -0.000000
vn 0.951056 0.309017 0.000000
vn 0.951056 0.309017 0.000000
vn 0.951056 0.309017 0.000000
vn 0.951056 0.309017 0.000000
vn 0.587785 0.809017 0.000000
vn 0.587785 0.809017 0.000000
vn 0.587785 0.809017 0.000000
vn 0.587785 0.809017 0.000000
vn 0.000000 1.000000 0.000000
vn 0.000000 1.000000 0.000000
vn 0.000000 1.000000 0.000000
vn 0.000000 1.000000 0.000000
vn -0.587785 0.809017 0.000000
vn -0.587785 0.809017 0.000000
vn -0.587785 0.809017 0.000000
vn -0.587785 0.809017 0.000000
vn -0.951057 0.309017 0.000000
vn -0.951057 0.309017 0.000000
vn -0.951057 0.309017 0.000000
vn -0.951057 0.309017 0.000000
vn -0.951057 -0.309017 -0.000000
vn -0.951057 -0.309017 -0.000000
vn -0.951057 -0.309017 -0.000000
vn -0.951057 -0.309017 -0.000000
vn 0.000000 0.000000 -1.000000
vn 0.000000 0.000000 -1.000000
vn 0.000000 0.000000 -1.000000
vn 0.000000 -0.000000 -1.000000
vn 0.000000 -0.000000 1.000000
vn 0.000000 -0.000000 1.000000
vn 0.000000 -0.000000 1.000000
vn 0.000000 -0.000000 1.000000
vn 0.000000 0.000000 -1.000000
vn 0.000000 -0.000000 -1.000000
vn 0.000000 -0.000000 1.000000
vn 0.000000 0.000000 1.000000
vn 0.000000 -0.000000 -1.000000
vn 0.000000 -0.000000 -1.000000
vn 0.000000 -0.000000 1.000000
vn 0.000000 0.000000 1.000000
vn 0.000000 0.000000 -1.000000
vn 0.000000 0.000000 -1.000000
vn 0.000000 -0.000000 1.000000
vn 0.000000 -0.000000 1.000000
vn 0.000000 0.000000 -1.000000
vn 0.000000 0.000000 -1.000000
vn 0.000000 -0.000000 1.000000
vn 0.000000 -0.000000 1.000000
vn 0.000000 0.000000 -1.000000
vn 0.000000 -0.000000 -1.000000
vn 0.000000 -0.000000 1.000000
vn 0.000000 -0.000000 1.000000
vn 0.000000 0.000000 -1.000000
vn 0.000000 -0.000000 -1.000000
vn 0.000000 0.000000 1.000000
vn 0.000000 -0.000000 1.000000
vn 0.000000 0.000000 -1.000000
vn 0.000000 0.000000 -1.000000
vn 0.000000 0.000000 1.000000
vn 0.000000 0.000000 1.000000
vn 0.000000 0.000000 -1.000000
vn 0.000000 0.000000 -1.000000
vn 0.000000 -0.000000 1.000000
vn 0.000000 -0.000000 1.000000
vn 0.000000 -0.000000 -1.000000
vn 0.000000 -0.000000 -1.000000
vn 0.975953 -0.217982 -0.000000
vn 0.975953 -0.217982 -0.000000
vn 0.975953 -0.217982 -0.000000
vn 0.975953 -0.217982 -0.000000
vn 0.000000 -0.000000 1.000000
vn 0.000000 -0.000000 1.000000
vn -0.975953 -0.217982 -0.000000
vn -0.975953 -0.217982 -0.000000
vn -0.975953 -0.217982 -0.000000
vn -0.975953 -0.217982 -0.000000
vn 0.000000 -0.000000 -1.000000
vn 0.000000 -0.000000 -1.000000
vn -0.513878 0.857863 0.000000
vn -0.513878 0.857863 0.000000
vn -0.513878 0.857863 0.000000
vn -0.513878 0.857863 0.000000
vn 0.000000 -0.000000 1.000000
vn 0.000000 -0.000000 1.000000
vn 0.974674 -0.223633 -0.000000
vn 0.974674 -0.223633 -0.000000
vn 0.974674 -0.223633 -0.000000
vn 0.974674 -0.223633 -0.000000
vn 0.000000 0.000000 -1.000000
vn 0.000000 0.000000 -1.000000
vn -0.974673 -0.223633 -0.000000
vn -0.974673 -0.223633 -0.000000
vn -0.974673 -0.223633 -0.000000
vn -0.974673 -0.223633 -0.000000
vn 0.000000 0.000000 1.000000
vn 0.000000 0.000000 1.000000
vn 0.513879 0.857863 0.000000
vn 0.513879 0.857863 0.000000
vn 0.513879 0.857863 0.000000
vn 0.513879 0.857863 0.000000
g LP_Tali
f 45/97/1 46/101/2 47/102/3 48/98/4
f 22/103/5 25/104/6 26/105/7 23/106/8
f 49/85/9 50/82/10 51/81/11 52/86/12
f 27/75/13 29/76/14 30/77/15 28/78/16
f 29/76/17 31/79/18 32/80/19 30/77/20
f 31/79/21 33/83/22 34/84/23 32/80/24
f 41/107/25 42/100/26 43/99/27 44/108/28
f 35/95/29 37/89/30 38/92/31 36/96/32
f 37/89/33 39/90/34 40/91/35 38/92/36
f 39/90/37 21/93/38 24/94/39 40/91/40
f 1/55/41 11/56/42 12/57/43 2/58/44
f 2/58/45 12/57/46 13/59/47 3/24/48
f 3/60/49 13/23/50 14/61/51 4/62/52
f 4/62/53 14/61/54 15/63/55 5/64/56
f 5/64/57 15/63/58 16/65/59 6/66/60
f 6/66/61 16/65/62 17/67/63 7/68/64
f 7/68/65 17/67/66 18/69/67 8/70/68
f 8/70/69 18/69/70 19/71/71 9/72/72
f 9/72/73 19/71/74 20/73/75 10/74/76
f 10/74/77 20/73/78 11/56/79 1/55/80
f 1/1/81 2/2/82 22/3/83 21/4/84
f 12/5/85 11/6/86 24/7/87 23/8/88
f 2/2/82 3/9/89 25/10/90 22/3/83
f 13/11/91 12/5/85 23/8/88 26/12/92
f 3/9/89 4/13/93 27/14/94 25/10/90
f 14/15/95 13/11/91 26/12/92 28/16/96
f 4/13/93 5/17/97 29/18/98 27/14/94
f 15/19/99 14/15/95 28/16/96 30/20/100
f 5/17/97 6/21/101 31/22/102 29/18/98
f 16/25/103 15/19/99 30/20/100 32/26/104
f 6/21/101 7/27/105 33/28/106 31/22/102
f 17/29/107 16/25/103 32/26/104 34/30/108
f 7/27/105 8/31/109 35/32/110 33/28/106
f 18/33/111 17/29/107 34/30/108 36/34/112
f 8/31/109 9/35/113 37/36/114 35/32/110
f 19/37/115 18/33/111 36/34/112 38/38/116
f 9/35/113 10/39/117 39/40/118 37/36/114
f 20/41/119 19/37/115 38/38/116 40/42/120
f 10/39/117 1/1/81 21/4/84 39/40/118
f 11/6/86 20/41/119 40/42/120 24/7/87
f 33/28/106 35/32/110 42/43/121 41/44/122
f 35/95/123 36/96/124 43/99/125 42/100/126
f 36/34/112 34/30/108 44/45/127 43/46/128
f 34/84/129 33/83/130 41/87/131 44/88/132
f 21/4/84 22/3/83 46/47/133 45/48/134
f 22/103/135 23/106/136 47/102/137 46/101/138
f 23/8/88 24/7/87 48/49/139 47/50/140
f 24/94/141 21/93/142 45/97/143 48/98/144
f 25/10/90 27/14/94 50/51/145 49/52/146
f 27/75/147 28/78/148 51/81/149 50/82/150
f 28/16/96 26/12/92 52/53/151 51/54/152
f 26/105/153 25/104/154 49/85/155 52/86/156
